<svg width="508" height="127" viewBox="0 0 508 127" fill="none" xmlns="http://www.w3.org/2000/svg">
<path d="M87.1537 18.232C86.5262 18.5024 85.8843 19.0149 85.7284 19.3739C85.5725 19.7286 85.4356 21.7161 85.4277 23.7837C85.4126 26.9466 85.5304 27.6993 86.1539 28.5092C86.8793 29.451 87.0129 29.4737 91.9006 29.4737C96.4725 29.4737 96.9559 29.4089 97.4533 28.7027C97.8491 28.1394 97.9972 26.7779 97.9853 23.6874C97.9778 21.3528 97.8491 19.2312 97.6934 18.9684C97.5409 18.71 96.8153 18.3207 96.0854 18.1012C95.3512 17.8849 93.2999 17.7151 91.5243 17.7227C89.7458 17.7303 87.7804 17.9584 87.1537 18.232ZM158.162 17.9779C157.709 18.0698 157.068 18.5251 156.733 18.9879C156.269 19.6324 156.133 20.7937 156.133 23.9772C156.136 27.1445 156.269 28.2594 156.707 28.7027C157.037 29.039 158.356 29.3818 159.842 29.5246C161.252 29.6554 163.517 29.6478 164.878 29.5019C166.371 29.3397 167.613 28.9763 168.024 28.5838C168.591 28.0388 168.701 27.2797 168.689 23.9762C168.683 21.8005 168.508 19.6745 168.298 19.2507C168.089 18.8257 167.364 18.3012 166.682 18.085C166.003 17.8698 163.992 17.7227 162.217 17.7541C160.439 17.7844 158.614 17.8892 158.162 17.9779Z" fill="#5F6062"/>
<path fill-rule="evenodd" clip-rule="evenodd" d="M22.7908 33.9624C25.1376 33.943 27.1939 34.1765 28.9062 34.6469C30.3242 35.0405 32.3881 35.8137 33.4927 36.3673C34.5972 36.9221 36.4434 38.1494 39.7035 40.8192L41.3279 39.3389C42.2223 38.5246 43.8963 37.3351 45.0544 36.6928C46.2086 36.0537 48.3605 35.1746 49.832 34.7388C51.6819 34.1917 53.6006 33.9473 56.0429 33.943C58.3017 33.9386 60.5071 34.1873 62.1582 34.6393C63.5762 35.0254 65.8542 35.9283 67.2222 36.6463C68.5867 37.3654 70.739 38.9831 72.0003 40.2451C73.2616 41.507 74.8438 43.5724 75.5125 44.8343C76.1852 46.0962 77.0794 48.246 77.5001 49.6149C77.9241 50.9807 78.4479 53.2169 78.6656 54.5859C78.891 55.9863 79.067 63.294 79.067 71.3176C79.071 79.1531 79.067 86.7106 79.067 86.7106H66.4582L66.267 55.1601L65.1204 52.8655C64.3254 51.2705 63.4654 50.2194 62.3149 49.4235C60.8243 48.3952 60.16 47.8275 57.0182 47.6977C54.7556 47.6026 53.1151 48.1616 52.1251 48.4904C51.2843 48.7704 50.0152 49.523 49.3044 50.1664C48.5936 50.812 47.6494 52.0242 47.2023 52.8666C46.4263 54.335 46.3844 55.0271 46.2009 70.0752C46.0939 78.6989 46.2009 86.7106 46.2009 86.7106H33.2137C33.2137 86.7106 33.2099 78.9822 33.2137 70.9359C33.2213 58.0441 33.141 56.0598 32.5523 54.2042C32.0975 52.7779 31.3598 51.5776 30.2514 50.4757C29.208 49.4354 28.0345 48.698 26.9949 48.4265C26.1005 48.193 24.0366 47.622 22.2326 47.6977C19.4388 47.8167 18.5903 48.4298 17.222 49.3284C16.343 49.9058 15.204 51.0261 14.688 51.8144C14.1721 52.6027 13.5529 54.0215 13.3082 54.9698C13.0215 56.0782 12.8113 62.0332 12.5667 86.7106H0.0493095C0.0493095 86.7106 -0.0616369 77.8955 0.0493095 69.6924C0.236707 55.9289 0.316835 54.5405 1.08503 51.7182C1.54373 50.0356 2.5336 47.3668 3.28276 45.7913C4.29177 43.6686 5.35441 42.2228 7.36474 40.2418C8.85917 38.7658 11.0264 37.0789 12.1844 36.4906C13.3388 35.9013 15.4027 35.0978 16.771 34.7042C18.3456 34.2533 20.551 33.9819 22.7908 33.9624ZM127.134 33.97C129.698 33.9473 131.812 34.1495 133.249 34.5593C134.457 34.9032 136.651 35.7867 138.123 36.5285C139.709 37.3276 141.665 38.7463 142.931 40.0158C144.105 41.1945 145.496 42.8457 146.023 43.687C146.547 44.5294 147.53 46.5937 148.198 48.2762C148.878 49.9826 149.585 52.6903 149.804 54.3956C150.025 56.1398 150.143 63.6963 149.971 86.5192L143.951 86.6144C137.986 86.7106 137.447 86.6144 137.447 86.6144C137.447 86.6144 137.508 78.4502 137.447 70.4569C137.339 57.0611 137.271 55.7797 136.579 54.0506C136.166 53.019 135.099 51.4273 134.205 50.5136C133.234 49.5198 132.004 48.6969 131.148 48.472C130.361 48.2611 128.607 47.7615 127.188 47.7615C125.771 47.7572 123.996 48.3184 123.312 48.6017C122.628 48.885 121.489 49.615 120.774 50.227C120.063 50.8347 119.161 51.982 118.768 52.7703C118.377 53.5575 117.801 55.5386 117.483 57.1682C117.04 59.4509 116.89 63.1794 116.89 86.7106L104.404 86.6144C104.302 85.0811 104.286 77.8079 104.404 69.501C104.591 56.196 104.706 54.0777 105.356 51.7182C105.761 50.2465 106.686 47.7485 107.413 46.173C108.314 44.2158 109.534 42.4564 111.249 40.6279C112.902 38.8653 114.594 37.519 116.195 36.6928C117.533 36.0008 119.662 35.113 120.923 34.7194C122.483 34.2338 124.467 33.9927 127.134 33.97ZM323.877 33.9819C327.18 33.9581 329.212 34.1463 331.139 34.6469C332.61 35.033 334.759 35.8288 335.917 36.4214C337.072 37.0108 339.02 38.4554 340.248 39.6341C341.474 40.8117 342.973 42.6359 343.576 43.687C344.176 44.7391 345.013 46.6326 345.431 47.8945C345.847 49.1565 346.412 51.3938 346.688 52.8655C347.05 54.8011 347.192 59.8369 347.192 86.5192L341.268 86.6144C336.846 86.6879 334.564 86.7106 334.564 86.7106C334.564 86.7106 334.778 84.8518 334.771 81.7386L333.107 83.1735C332.194 83.9608 330.517 85.081 329.381 85.6628C328.246 86.2446 326.285 86.9745 325.024 87.2892C323.762 87.606 322.084 87.8623 321.298 87.8623C320.511 87.8579 318.618 87.5865 317.093 87.2545C315.568 86.9215 313.03 86.0186 311.456 85.2465C309.542 84.3014 307.792 83.0524 306.277 81.5483C304.754 80.0549 303.503 78.3075 302.581 76.3848C301.816 74.806 300.941 72.6563 300.631 71.6053C300.325 70.5531 299.848 67.7124 299.576 65.2945C299.164 61.6698 299.167 60.1592 299.58 56.6902C299.855 54.3772 300.41 51.4511 300.808 50.1891C301.209 48.9272 302.088 46.8045 302.768 45.4734C303.448 44.139 304.863 42.1807 305.914 41.122C306.965 40.0591 308.513 38.7204 309.353 38.1462C310.194 37.573 311.483 36.7891 312.22 36.4063C312.953 36.0235 314.846 35.3271 316.424 34.861C318.641 34.2068 320.33 34.0078 323.877 33.9819ZM316.998 48.0394C316.367 48.5325 315.408 49.562 314.864 50.3265C314.327 51.091 313.549 52.5789 313.145 53.6311C312.538 55.2142 312.415 56.4912 312.438 61.0881C312.457 65.8146 312.583 66.9425 313.282 68.7364C313.733 69.8913 314.678 71.5285 315.385 72.3698C316.088 73.2111 317.513 74.3162 318.554 74.8255C320.078 75.5749 321.022 75.7501 323.494 75.7468C325.769 75.7393 326.992 75.5327 328.273 74.9434C329.217 74.5076 330.58 73.49 331.299 72.6877C332.022 71.8799 333.047 70.2741 333.581 69.1192C334.499 67.1306 334.552 66.6603 334.564 60.5149C334.575 54.5297 334.502 53.8603 333.696 52.101C333.215 51.0499 332.355 49.6993 331.789 49.1035C331.219 48.5066 330.069 47.6534 329.228 47.2143C328.086 46.6174 326.828 46.3839 324.26 46.2887C322.104 46.212 320.318 46.346 319.481 46.6553C318.744 46.9224 317.628 47.5463 316.998 48.0394ZM375.476 33.97C378.706 33.9505 380.258 34.1268 382.165 34.7269C383.529 35.1595 385.673 36.0624 386.927 36.7307C388.181 37.4044 390.084 38.8112 391.158 39.8634C392.228 40.9144 393.707 42.8079 394.441 44.0698C395.175 45.3317 396.153 47.3971 396.619 48.659C397.082 49.921 397.72 52.288 398.03 53.9176C398.473 56.2198 398.599 60.1083 398.592 71.3176C398.592 79.2569 398.462 85.9688 398.305 86.2327C398.099 86.5884 385.948 86.2327 385.948 86.2327V71.7956C385.819 63.6963 385.546 56.4685 385.337 55.7343C385.13 54.9957 384.611 53.7068 384.183 52.8655C383.758 52.0242 382.829 50.812 382.119 50.1654C381.407 49.523 380.139 48.7693 379.297 48.4904C377.818 48.0124 376.264 47.8102 374.711 47.8945C372.282 48.0243 371.367 48.5098 370.263 49.2516C369.494 49.7674 368.465 50.705 367.977 51.3354C367.488 51.9669 366.746 53.3434 366.325 54.3956C365.618 56.1733 365.558 57.3628 365.347 86.7106L352.925 86.5192L352.811 72.7515C352.738 63.9872 352.852 57.6656 353.135 55.3515C353.376 53.351 353.827 50.9418 354.136 49.9977C354.446 49.0494 355.334 46.984 356.106 45.4085C357.046 43.4945 358.297 41.7503 359.808 40.2461C361.073 38.9831 363.054 37.4422 364.204 36.8193C365.359 36.1954 367.419 35.3044 368.787 34.8416C370.724 34.1798 372.193 33.9894 375.476 33.97ZM429.177 33.9657C432.273 33.9354 434.42 34.1311 436.438 34.6274C438.013 35.0178 440.407 35.9207 441.751 36.6431C443.188 37.4119 445.077 38.8955 446.338 40.2461C447.519 41.5081 448.891 43.4004 449.387 44.4526C449.993 45.7632 450.531 47.103 451 48.4676C451.391 49.6225 451.895 51.9485 452.124 53.6311C452.395 55.6121 452.495 62.8853 452.403 74.2816C452.266 91.541 452.246 91.9227 451.368 94.5504C450.874 96.0232 449.915 98.1718 449.235 99.331C448.558 100.486 447.075 102.268 445.947 103.289C444.816 104.311 442.687 105.725 441.215 106.432C439.744 107.144 437.337 108.095 435.865 108.551C433.487 109.286 432.042 109.396 422.869 109.561C413.173 109.733 411.265 109.561 411.265 109.561V97.7631C411.265 97.7631 416.109 97.8885 421.084 97.7631C428.683 97.5674 430.468 97.4106 432.234 96.7834C433.387 96.3747 435.104 95.529 436.041 94.9094C436.976 94.2909 438.249 93.0095 438.869 92.0644C439.843 90.5732 440.019 89.8844 440.191 86.902C440.298 85.0097 440.271 83.1573 440.134 82.7907C439.897 82.1679 439.805 82.1754 438.827 82.9054C438.249 83.3379 436.827 84.3122 435.673 85.0778C434.5 85.8499 432.39 86.768 430.896 87.154C429.424 87.5325 427.574 87.846 426.787 87.8504C426 87.8536 424.02 87.579 422.391 87.2427C420.764 86.901 418.31 86.0878 416.946 85.4292C415.298 84.6344 413.554 83.3303 411.766 81.5515C409.955 79.7467 408.686 78.0566 407.883 76.3848C407.225 75.0158 406.427 72.9505 406.106 71.7956C405.785 70.6375 405.315 68.3158 405.063 66.6332C404.776 64.7549 404.684 61.8753 404.825 59.1752C404.948 56.7551 405.315 53.5727 405.639 52.101C405.964 50.6293 406.916 48.047 407.753 46.3644C408.59 44.6818 410.012 42.4597 410.911 41.4281C411.812 40.3954 413.494 38.9107 414.652 38.131C415.806 37.347 417.442 36.4106 418.283 36.0429C419.123 35.6753 420.928 35.0676 422.296 34.6891C423.955 34.2338 426.241 33.9927 429.177 33.9657ZM420.741 49.642C419.992 50.5752 419.067 52.1085 418.684 53.0569C418.18 54.3037 417.935 56.2004 417.798 59.9408C417.63 64.4154 417.71 65.4632 418.398 67.7805C418.971 69.727 419.64 70.9694 420.836 72.3276C421.747 73.3527 423.176 74.5379 424.017 74.9585C425.182 75.5392 426.313 75.7198 428.794 75.7198C431.347 75.7198 432.39 75.5479 433.668 74.9045C434.562 74.4579 435.85 73.5279 436.534 72.8434C437.219 72.1557 438.163 70.7791 438.636 69.7843C439.11 68.7862 439.691 66.7251 439.927 65.1994C440.184 63.5395 440.261 60.7355 440.111 58.2192C439.906 54.6367 439.698 53.657 438.728 51.623C438.002 50.1005 437.069 48.8504 436.163 48.1811C435.379 47.6036 434.134 46.9224 433.392 46.6661C432.65 46.4142 430.475 45.9167 428.794 45.9092C426.387 45.9016 425.519 46.3687 424.017 47.0641C422.869 47.5917 421.559 48.6244 420.741 49.642ZM482.495 33.9851C485.048 33.9624 487.203 34.1765 488.993 34.6393C490.464 35.0221 492.871 35.9132 494.343 36.6236C496.263 37.5493 497.829 38.7268 499.885 40.7998C501.827 42.7581 503.138 44.4861 503.948 46.173C504.609 47.5388 505.504 49.948 505.944 51.5268C506.383 53.1023 506.857 56.2004 507.001 58.4106C507.265 62.4181 507.262 62.4268 506.345 62.709C505.84 62.8626 497.932 62.9923 488.771 62.9966C479.609 62.9966 472.041 63.0767 471.954 63.1718C471.866 63.2681 472.007 64.5603 472.271 66.0406C472.534 67.5243 473.153 69.555 473.65 70.5531C474.148 71.5512 475.306 73.0229 476.231 73.8188C477.158 74.6255 478.76 75.5208 479.82 75.8312C480.871 76.1404 482.246 76.3891 482.876 76.3848C483.507 76.3816 484.967 76.1253 486.125 75.8193C487.88 75.3565 488.958 75.0721 490.648 73.2251C491.76 72.0086 493.005 69.502 493.005 69.502H506.344C506.344 69.502 505.923 70.9089 505.576 72.0832C505.339 72.8704 504.759 74.2892 504.28 75.2375C503.803 76.1826 502.698 77.903 501.83 79.0623C500.959 80.2171 499.434 81.8078 498.444 82.5918C497.45 83.3758 495.516 84.5696 494.152 85.2378C492.783 85.9115 490.291 86.7723 488.61 87.1507C486.928 87.5292 484.431 87.8385 483.068 87.8385C481.699 87.8385 479.036 87.4946 477.143 87.0707C475.251 86.649 472.584 85.7504 471.22 85.0735C469.572 84.2625 467.764 82.8783 465.853 80.9784C463.862 78.9931 462.608 77.3375 461.782 75.6203C461.128 74.2513 460.215 71.5858 459.753 69.6924C459.007 66.6408 458.931 65.5162 459.087 59.7494C459.24 53.9944 459.379 52.9077 460.273 50.2843C460.827 48.6547 461.736 46.4185 462.291 45.3123C462.845 44.2071 464.523 42.0888 466.017 40.6051C467.764 38.8685 469.626 37.4649 471.22 36.6744C472.584 35.9975 474.819 35.1249 476.188 34.7345C477.801 34.2717 480.014 34.0078 482.495 33.9851ZM475.676 48.4103C475.076 48.9683 474.174 50.2421 473.669 51.2402C473.162 52.2383 472.749 53.3132 472.749 53.6311C472.749 54.1274 474.128 54.2042 482.876 54.2042C491.626 54.2042 493.005 54.1274 493.005 53.6311C493.005 53.3132 492.688 52.327 492.294 51.4316C491.905 50.5363 490.831 49.1294 489.906 48.3033C488.984 47.4771 487.67 46.571 486.986 46.2952C486.302 46.0162 484.505 45.3123 482.876 45.3123C480.602 45.309 479.464 45.9741 478.29 46.5937C477.45 47.0381 476.273 47.8556 475.676 48.4103ZM97.6091 35.2741V86.5192L91.6844 86.6144C87.2621 86.6879 85.1178 86.6144 85.1178 86.6144C85.1178 86.6144 85.16 74.5606 85.1178 60.8772C85.045 39.7552 85.1138 35.9316 85.5768 35.5336C85.9664 35.1973 87.7515 35.0946 97.6091 35.2741ZM162.469 35.0827C166.647 35.0827 167.863 35.2017 168.317 35.6569C168.814 36.1532 168.891 39.4805 168.891 60.8967V86.7106H162.584C157.657 86.7106 156.201 86.5192 156.201 86.5192C156.201 86.5192 156.243 74.4114 156.201 60.7821C156.136 39.9477 156.208 35.9283 156.659 35.5412C157.019 35.2319 158.919 35.0827 162.469 35.0827ZM285.561 35.1368C292.754 35.087 293.492 35.366 293.492 35.366V47.7107C293.492 47.7107 291.585 47.7031 287.636 47.7107C283.569 47.7183 282.36 47.4804 281.125 48.0459C280.284 48.432 279.69 48.632 278.776 49.9826C278.042 50.8088 278.004 51.5354 277.809 68.6791C277.695 78.4924 277.809 86.7106 277.809 86.7106H264.833C264.833 86.7106 264.83 78.4697 264.833 67.3026C264.838 52.8428 264.948 48.911 265.414 46.7472C265.732 45.2744 266.397 43.381 266.894 42.5397C267.391 41.6984 268.633 40.2418 269.653 39.3043C270.677 38.3678 272.547 37.1405 273.807 36.5739C275.069 36.0083 276.529 35.4655 277.057 35.366C279.014 34.967 281.41 35.1627 285.561 35.1368Z" fill="#5F6062"/>
<path d="M207.317 98.8747C189.552 94.1568 177.298 78.2448 177.341 59.9732C177.383 49.5944 180.732 40.7587 187.475 33.4239C195.149 25.0608 203.459 20.9862 214.694 19.9568C218.3 19.6573 224.829 20.3428 226.567 21.2436C228.135 22.0589 229.111 23.6885 229.111 25.5755C229.111 26.7769 228.771 27.4624 227.627 28.6206C227.01 29.1061 226.297 29.45 225.536 29.6295C224.285 29.9193 222.624 29.7787 222.624 29.7787C213.211 28.7925 206.003 30.5075 199.262 35.3541C191.757 40.7587 187.305 49.0797 186.839 58.5577C186.033 73.8264 196.888 87.4654 211.939 90.1255C213.636 90.4251 216.688 90.5548 219.317 90.3829C232.927 89.6962 244.163 79.9608 247.13 66.3218C247.725 63.5762 247.852 61.818 247.64 57.5715C247.64 57.5715 247.24 55.3353 247.526 53.6408C247.71 52.6027 248.141 51.6263 248.784 50.7947C250.778 48.7791 253.109 48.7358 255.186 50.7525C256.544 52.0393 256.671 52.3821 257.137 56.0706C258.367 66.75 254.466 78.5454 247.004 86.6934C243.102 90.9398 239.965 93.3847 235.64 95.6145C229.111 98.9169 224.701 99.9463 216.816 99.9042C212.193 99.9042 210.37 99.7333 207.317 98.8747Z" fill="#F7934D"/>
<path d="M212.813 72.16C212.546 71.6572 212.679 69.5637 213.214 66.298L214.062 61.1486L212.322 59.6834C208.262 56.208 209.199 50.0962 214.196 47.7096C216.872 46.412 220.62 46.7461 222.85 48.4633C226.732 51.3516 227.044 55.8316 223.699 59.3482L221.581 61.1486L222.627 66.5489C223.252 70.4428 223.342 71.867 222.94 72.2855C222.583 72.7039 221.2 72.8715 217.81 72.8715C213.883 72.8715 213.125 72.7461 212.813 72.16Z" fill="#F7934D"/>
<path d="M233.643 42.5527C229.028 37.0616 232.099 31.6008 237.977 28.3556C240.548 26.6774 242.858 24.1481 244.035 21.422L244.544 19.8854L245.338 21.674C246.221 24.5255 246.979 30.3269 246.264 30.5367C240.253 32.2982 233.979 43.3496 233.643 42.5527Z" fill="#4D9965"/>
<path d="M237.935 45.6637C235.682 45.216 233.571 43.8005 233.571 42.6013C233.571 41.2312 235.65 36.3522 237.33 34.5117C239.136 32.4561 242.086 30.8222 244.648 30.0512C246.076 29.6229 248.785 29.5667 251.694 29.65C254.601 29.7343 256.28 29.9571 256.28 30.3853C256.28 30.5562 253.615 32.0365 252.902 32.4215C250.458 34.0457 249.487 35.8883 247.848 39.0566C246.168 42.3969 245.221 43.8102 243.372 44.7953C241.776 45.6518 240.186 46.1114 237.935 45.6637Z" fill="#9BCE7A"/>
</svg>
